<?xml version="1.0" encoding="utf-8" standalone="no"?>
<!DOCTYPE svg PUBLIC "-//W3C//DTD SVG 1.1//EN"
  "http://www.w3.org/Graphics/SVG/1.1/DTD/svg11.dtd">
<svg xmlns:xlink="http://www.w3.org/1999/xlink" width="580.4pt" height="693.6pt" viewBox="0 0 580.4 693.6" xmlns="http://www.w3.org/2000/svg" version="1.1">
 <metadata>
  <rdf:RDF xmlns:dc="http://purl.org/dc/elements/1.1/" xmlns:cc="http://creativecommons.org/ns#" xmlns:rdf="http://www.w3.org/1999/02/22-rdf-syntax-ns#">
   <cc:Work>
    <dc:type rdf:resource="http://purl.org/dc/dcmitype/StillImage"/>
    <dc:date>2026-01-23T16:40:35.949930</dc:date>
    <dc:format>image/svg+xml</dc:format>
    <dc:creator>
     <cc:Agent>
      <dc:title>Matplotlib v3.10.5, https://matplotlib.org/</dc:title>
     </cc:Agent>
    </dc:creator>
   </cc:Work>
  </rdf:RDF>
 </metadata>
 <defs>
  <style type="text/css">*{stroke-linejoin: round; stroke-linecap: butt}</style>
 </defs>
 <g id="figure_1">
  <g id="patch_1">
   <path d="M 0 693.6 
L 580.4 693.6 
L 580.4 0 
L 0 0 
z
" style="fill: #ffffff"/>
  </g>
  <g id="axes_1">
   <g id="patch_2">
    <path d="M 177 301.52 
L 403.4 301.52 
Q 414.72 301.52 414.72 290.2 
L 414.72 92.1 
Q 414.72 80.78 403.4 80.78 
L 177 80.78 
Q 165.68 80.78 165.68 92.1 
L 165.68 290.2 
Q 165.68 301.52 177 301.52 
z
" clip-path="url(#pd65b51379b)" style="fill: #ffffff; stroke: #000000; stroke-width: 2.5; stroke-linejoin: miter"/>
   </g>
   <g id="patch_3">
    <path d="M 290.2 55.31 
C 293.952624 55.31 297.552055 53.819067 300.205561 51.165561 
C 302.859067 48.512055 304.35 44.912624 304.35 41.16 
C 304.35 37.407376 302.859067 33.807945 300.205561 31.154439 
C 297.552055 28.500933 293.952624 27.01 290.2 27.01 
C 286.447376 27.01 282.847945 28.500933 280.194439 31.154439 
C 277.540933 33.807945 276.05 37.407376 276.05 41.16 
C 276.05 44.912624 277.540933 48.512055 280.194439 51.165561 
C 282.847945 53.819067 286.447376 55.31 290.2 55.31 
z
" clip-path="url(#pd65b51379b)" style="stroke: #000000; stroke-width: 2.5; stroke-linejoin: miter"/>
   </g>
   <g id="patch_4">
    <path d="M 233.6 199.64 
C 239.604198 199.64 245.363288 197.254507 249.608898 193.008898 
C 253.854507 188.763288 256.24 183.004198 256.24 177 
C 256.24 170.995802 253.854507 165.236712 249.608898 160.991102 
C 245.363288 156.745493 239.604198 154.36 233.6 154.36 
C 227.595802 154.36 221.836712 156.745493 217.591102 160.991102 
C 213.345493 165.236712 210.96 170.995802 210.96 177 
C 210.96 183.004198 213.345493 188.763288 217.591102 193.008898 
C 221.836712 197.254507 227.595802 199.64 233.6 199.64 
z
" clip-path="url(#pd65b51379b)" style="fill: #ffffff; stroke: #000000; stroke-width: 2.5; stroke-linejoin: miter"/>
   </g>
   <g id="patch_5">
    <path d="M 346.8 199.64 
C 352.804198 199.64 358.563288 197.254507 362.808898 193.008898 
C 367.054507 188.763288 369.44 183.004198 369.44 177 
C 369.44 170.995802 367.054507 165.236712 362.808898 160.991102 
C 358.563288 156.745493 352.804198 154.36 346.8 154.36 
C 340.795802 154.36 335.036712 156.745493 330.791102 160.991102 
C 326.545493 165.236712 324.16 170.995802 324.16 177 
C 324.16 183.004198 326.545493 188.763288 330.791102 193.008898 
C 335.036712 197.254507 340.795802 199.64 346.8 199.64 
z
" clip-path="url(#pd65b51379b)" style="fill: #ffffff; stroke: #000000; stroke-width: 2.5; stroke-linejoin: miter"/>
   </g>
   <g id="patch_6">
    <path d="M 233.6 188.32 
C 236.602099 188.32 239.481644 187.127253 241.604449 185.004449 
C 243.727253 182.881644 244.92 180.002099 244.92 177 
C 244.92 173.997901 243.727253 171.118356 241.604449 168.995551 
C 239.481644 166.872747 236.602099 165.68 233.6 165.68 
C 230.597901 165.68 227.718356 166.872747 225.595551 168.995551 
C 223.472747 171.118356 222.28 173.997901 222.28 177 
C 222.28 180.002099 223.472747 182.881644 225.595551 185.004449 
C 227.718356 187.127253 230.597901 188.32 233.6 188.32 
z
" clip-path="url(#pd65b51379b)"/>
   </g>
   <g id="patch_7">
    <path d="M 346.8 188.32 
C 349.802099 188.32 352.681644 187.127253 354.804449 185.004449 
C 356.927253 182.881644 358.12 180.002099 358.12 177 
C 358.12 173.997901 356.927253 171.118356 354.804449 168.995551 
C 352.681644 166.872747 349.802099 165.68 346.8 165.68 
C 343.797901 165.68 340.918356 166.872747 338.795551 168.995551 
C 336.672747 171.118356 335.48 173.997901 335.48 177 
C 335.48 180.002099 336.672747 182.881644 338.795551 185.004449 
C 340.918356 187.127253 343.797901 188.32 346.8 188.32 
z
" clip-path="url(#pd65b51379b)"/>
   </g>
   <g id="patch_8">
    <path d="M 188.32 516.6 
L 392.08 516.6 
L 392.08 290.2 
L 188.32 290.2 
z
" clip-path="url(#pd65b51379b)" style="fill: #ffffff; stroke: #000000; stroke-width: 2.5; stroke-linejoin: miter"/>
   </g>
   <g id="patch_9">
    <path d="M 233.6 471.32 
L 346.8 471.32 
L 346.8 335.48 
L 233.6 335.48 
z
" clip-path="url(#pd65b51379b)" style="fill: #ffffff; stroke: #000000; stroke-width: 2.5; stroke-linejoin: miter"/>
   </g>
   <g id="patch_10">
    <path d="M 290.2 383.59 
C 292.451574 383.59 294.611233 382.69544 296.203337 381.103337 
C 297.79544 379.511233 298.69 377.351574 298.69 375.1 
C 298.69 372.848426 297.79544 370.688767 296.203337 369.096663 
C 294.611233 367.50456 292.451574 366.61 290.2 366.61 
C 287.948426 366.61 285.788767 367.50456 284.196663 369.096663 
C 282.60456 370.688767 281.71 372.848426 281.71 375.1 
C 281.71 377.351574 282.60456 379.511233 284.196663 381.103337 
C 285.788767 382.69544 287.948426 383.59 290.2 383.59 
z
" clip-path="url(#pd65b51379b)" style="stroke: #000000; stroke-width: 2.5; stroke-linejoin: miter"/>
   </g>
   <g id="patch_11">
    <path d="M 290.2 411.89 
C 292.451574 411.89 294.611233 410.99544 296.203337 409.403337 
C 297.79544 407.811233 298.69 405.651574 298.69 403.4 
C 298.69 401.148426 297.79544 398.988767 296.203337 397.396663 
C 294.611233 395.80456 292.451574 394.91 290.2 394.91 
C 287.948426 394.91 285.788767 395.80456 284.196663 397.396663 
C 282.60456 398.988767 281.71 401.148426 281.71 403.4 
C 281.71 405.651574 282.60456 407.811233 284.196663 409.403337 
C 285.788767 410.99544 287.948426 411.89 290.2 411.89 
z
" clip-path="url(#pd65b51379b)" style="fill: #ffffff; stroke: #000000; stroke-width: 2.5; stroke-linejoin: miter"/>
   </g>
   <g id="patch_12">
    <path d="M 290.2 440.19 
C 292.451574 440.19 294.611233 439.29544 296.203337 437.703337 
C 297.79544 436.111233 298.69 433.951574 298.69 431.7 
C 298.69 429.448426 297.79544 427.288767 296.203337 425.696663 
C 294.611233 424.10456 292.451574 423.21 290.2 423.21 
C 287.948426 423.21 285.788767 424.10456 284.196663 425.696663 
C 282.60456 427.288767 281.71 429.448426 281.71 431.7 
C 281.71 433.951574 282.60456 436.111233 284.196663 437.703337 
C 285.788767 439.29544 287.948426 440.19 290.2 440.19 
z
" clip-path="url(#pd65b51379b)" style="stroke: #000000; stroke-width: 2.5; stroke-linejoin: miter"/>
   </g>
   <g id="patch_13">
    <path d="M 109.08 431.7 
L 188.32 431.7 
L 188.32 386.42 
L 109.08 386.42 
z
" clip-path="url(#pd65b51379b)" style="fill: #ffffff; stroke: #000000; stroke-width: 2.5; stroke-linejoin: miter"/>
   </g>
   <g id="patch_14">
    <path d="M 120.4 431.7 
C 126.404198 431.7 132.163288 429.314507 136.408898 425.068898 
C 140.654507 420.823288 143.04 415.064198 143.04 409.06 
C 143.04 403.055802 140.654507 397.296712 136.408898 393.051102 
C 132.163288 388.805493 126.404198 386.42 120.4 386.42 
C 114.395802 386.42 108.636712 388.805493 104.391102 393.051102 
C 100.145493 397.296712 97.76 403.055802 97.76 409.06 
C 97.76 415.064198 100.145493 420.823288 104.391102 425.068898 
C 108.636712 429.314507 114.395802 431.7 120.4 431.7 
z
" clip-path="url(#pd65b51379b)" style="fill: #ffffff; stroke: #000000; stroke-width: 2.5; stroke-linejoin: miter"/>
   </g>
   <g id="patch_15">
    <path d="M 392.08 431.7 
L 471.32 431.7 
L 471.32 386.42 
L 392.08 386.42 
z
" clip-path="url(#pd65b51379b)" style="fill: #ffffff; stroke: #000000; stroke-width: 2.5; stroke-linejoin: miter"/>
   </g>
   <g id="patch_16">
    <path d="M 460 431.7 
C 466.004198 431.7 471.763288 429.314507 476.008898 425.068898 
C 480.254507 420.823288 482.64 415.064198 482.64 409.06 
C 482.64 403.055802 480.254507 397.296712 476.008898 393.051102 
C 471.763288 388.805493 466.004198 386.42 460 386.42 
C 453.995802 386.42 448.236712 388.805493 443.991102 393.051102 
C 439.745493 397.296712 437.36 403.055802 437.36 409.06 
C 437.36 415.064198 439.745493 420.823288 443.991102 425.068898 
C 448.236712 429.314507 453.995802 431.7 460 431.7 
z
" clip-path="url(#pd65b51379b)" style="fill: #ffffff; stroke: #000000; stroke-width: 2.5; stroke-linejoin: miter"/>
   </g>
   <g id="patch_17">
    <path d="M 222.28 629.8 
L 278.88 629.8 
L 278.88 516.6 
L 222.28 516.6 
z
" clip-path="url(#pd65b51379b)" style="fill: #ffffff; stroke: #000000; stroke-width: 2.5; stroke-linejoin: miter"/>
   </g>
   <g id="patch_18">
    <path d="M 205.3 660.93 
L 278.88 660.93 
Q 281.71 660.93 281.71 658.1 
L 281.71 624.14 
Q 281.71 621.31 278.88 621.31 
L 205.3 621.31 
Q 202.47 621.31 202.47 624.14 
L 202.47 658.1 
Q 202.47 660.93 205.3 660.93 
z
" clip-path="url(#pd65b51379b)" style="fill: #ffffff; stroke: #000000; stroke-width: 2.5; stroke-linejoin: miter"/>
   </g>
   <g id="patch_19">
    <path d="M 301.52 629.8 
L 358.12 629.8 
L 358.12 516.6 
L 301.52 516.6 
z
" clip-path="url(#pd65b51379b)" style="fill: #ffffff; stroke: #000000; stroke-width: 2.5; stroke-linejoin: miter"/>
   </g>
   <g id="patch_20">
    <path d="M 301.52 660.93 
L 375.1 660.93 
Q 377.93 660.93 377.93 658.1 
L 377.93 624.14 
Q 377.93 621.31 375.1 621.31 
L 301.52 621.31 
Q 298.69 621.31 298.69 624.14 
L 298.69 658.1 
Q 298.69 660.93 301.52 660.93 
z
" clip-path="url(#pd65b51379b)" style="fill: #ffffff; stroke: #000000; stroke-width: 2.5; stroke-linejoin: miter"/>
   </g>
   <g id="line2d_1">
    <path d="M 290.2 92.1 
L 290.2 52.48 
" clip-path="url(#pd65b51379b)" style="fill: none; stroke: #000000; stroke-width: 2.5; stroke-linecap: square"/>
   </g>
   <g id="line2d_2">
    <path d="M 222.28 269.3712 
L 229.429474 264.494506 
L 236.578947 260.159668 
L 243.728421 256.366684 
L 250.877895 253.115555 
L 258.027368 250.40628 
L 265.176842 248.238861 
L 272.326316 246.613296 
L 279.475789 245.529587 
L 286.625263 244.987732 
L 293.774737 244.987732 
L 300.924211 245.529587 
L 308.073684 246.613296 
L 315.223158 248.238861 
L 322.372632 250.40628 
L 329.522105 253.115555 
L 336.671579 256.366684 
L 343.821053 260.159668 
L 350.970526 264.494506 
L 358.12 269.3712 
" clip-path="url(#pd65b51379b)" style="fill: none; stroke: #000000; stroke-width: 2.5; stroke-linecap: square"/>
   </g>
   <g id="text_1">
    <!-- &lt; -->
    <g transform="translate(240.705781 361.983125) scale(0.14 -0.14)">
     <defs>
      <path id="DejaVuSansMono-Bold-3c" d="M 3578 2894 
L 1094 2003 
L 3578 1119 
L 3578 341 
L 275 1638 
L 275 2375 
L 3578 3675 
L 3578 2894 
z
" transform="scale(0.015625)"/>
     </defs>
     <use xlink:href="#DejaVuSansMono-Bold-3c"/>
    </g>
   </g>
   <g id="text_2">
    <!-- &gt; -->
    <g transform="translate(331.265781 361.983125) scale(0.14 -0.14)">
     <defs>
      <path id="DejaVuSansMono-Bold-3e" d="M 275 2894 
L 275 3675 
L 3578 2375 
L 3578 1638 
L 275 341 
L 275 1119 
L 2759 2003 
L 275 2894 
z
" transform="scale(0.015625)"/>
     </defs>
     <use xlink:href="#DejaVuSansMono-Bold-3e"/>
    </g>
   </g>
   <g id="text_3">
    <!-- / -->
    <g transform="translate(251.42375 453.095) scale(0.16 -0.16)">
     <defs>
      <path id="DejaVuSansMono-Bold-2f" d="M 2809 4666 
L 3500 4666 
L 1044 -594 
L 353 -594 
L 2809 4666 
z
" transform="scale(0.015625)"/>
     </defs>
     <use xlink:href="#DejaVuSansMono-Bold-2f"/>
    </g>
   </g>
   <g id="text_4">
    <!-- / -->
    <g transform="translate(319.34375 453.095) scale(0.16 -0.16)">
     <use xlink:href="#DejaVuSansMono-Bold-2f"/>
    </g>
   </g>
  </g>
 </g>
 <defs>
  <clipPath id="pd65b51379b">
   <rect x="7.2" y="7.2" width="566" height="679.2"/>
  </clipPath>
 </defs>
</svg>
